G04 MADE WITH FRITZING*
G04 WWW.FRITZING.ORG*
G04 DOUBLE SIDED*
G04 HOLES PLATED*
G04 CONTOUR ON CENTER OF CONTOUR VECTOR*
%ASAXBY*%
%FSLAX23Y23*%
%MOIN*%
%OFA0B0*%
%SFA1.0B1.0*%
%ADD10C,0.083749*%
%ADD11C,0.088000*%
%ADD12C,0.085000*%
%ADD13C,0.075000*%
%ADD14R,0.088000X0.088000*%
%ADD15R,0.010150X0.010150*%
%LNMASK1*%
G90*
G70*
G54D10*
X1444Y1133D03*
X1444Y1033D03*
X1444Y833D03*
G54D11*
X1344Y1533D03*
X1344Y1433D03*
X1344Y1333D03*
X1344Y1533D03*
X1344Y1433D03*
X1344Y1333D03*
X1344Y1533D03*
X1344Y1433D03*
X1344Y1333D03*
X1344Y1533D03*
X1344Y1433D03*
X1344Y1333D03*
X1344Y1533D03*
X1344Y1433D03*
X1344Y1333D03*
X1344Y1533D03*
X1344Y1433D03*
X1344Y1333D03*
X1344Y1933D03*
X1344Y1833D03*
X1344Y1933D03*
X1344Y1833D03*
G54D12*
X1044Y933D03*
X944Y933D03*
X844Y933D03*
X744Y933D03*
X1109Y1272D03*
X1108Y1172D03*
X193Y1263D03*
G54D13*
X1274Y1863D03*
G54D12*
X448Y940D03*
X348Y940D03*
X248Y940D03*
G54D14*
X1344Y1533D03*
X1344Y1533D03*
X1344Y1533D03*
X1344Y1533D03*
X1344Y1533D03*
X1344Y1533D03*
X1344Y1933D03*
X1344Y1933D03*
G54D15*
X1007Y933D03*
G04 End of Mask1*
M02*